<?xml version="1.0" standalone="no"?>
<!DOCTYPE svg PUBLIC "-//W3C//DTD SVG 20010904//EN"
 "http://www.w3.org/TR/2001/REC-SVG-20010904/DTD/svg10.dtd">
<svg version="1.0" xmlns="http://www.w3.org/2000/svg"
 width="25000.000000pt" height="6250.000000pt" viewBox="0 0 25000.000000 6250.000000"
 preserveAspectRatio="xMidYMid meet">

<g transform="translate(0.000000,6250.000000) scale(0.100000,-0.100000)"
fill="#000000" stroke="none">
<path d="M0 31250 l0 -31250 1083 0 1082 0 11 23 c6 12 37 67 69 122 286 499
562 1043 781 1540 110 252 195 460 329 810 53 140 129 354 196 555 69 209 95
289 239 755 38 121 96 308 130 415 34 107 67 215 75 240 7 25 39 126 70 225
31 99 63 200 70 225 7 25 39 126 70 225 31 99 63 200 70 225 7 25 39 126 70
225 31 99 61 196 67 215 5 19 41 136 78 260 55 181 199 674 223 765 3 11 33
121 67 245 34 124 69 250 77 280 49 183 202 792 253 1005 17 72 37 157 45 190
43 183 98 422 120 530 7 33 32 148 54 255 112 526 145 691 226 1140 24 135 49
268 54 295 20 97 114 665 157 950 8 55 21 141 29 190 8 50 24 153 35 230 12
77 27 181 35 230 7 50 23 153 35 230 12 77 30 196 40 265 46 299 72 469 81
530 5 36 25 167 44 293 60 387 150 983 196 1287 11 74 26 176 34 225 8 50 23
151 35 225 11 74 31 212 46 305 96 628 200 1370 259 1855 52 424 67 545 75
625 5 50 19 173 30 275 75 660 160 1622 210 2375 6 83 15 215 20 295 12 173
36 614 50 905 31 650 42 894 60 1310 11 253 27 602 35 775 8 173 17 374 20
445 3 72 12 272 20 445 8 173 24 522 35 775 11 253 25 555 30 670 10 196 27
584 50 1115 5 124 17 380 25 570 45 1029 50 1330 50 2885 0 1226 -4 1608 -18
2030 -18 547 -50 1336 -66 1665 -6 107 -13 254 -16 325 -3 72 -12 274 -20 450
-23 479 -44 951 -55 1225 -5 135 -14 328 -20 430 -5 102 -12 246 -15 320 -3
74 -12 277 -20 450 -8 173 -24 520 -35 770 -64 1437 -87 1878 -141 2630 -79
1122 -190 2243 -328 3330 -57 443 -59 463 -76 580 -8 58 -26 184 -40 280 -43
306 -74 518 -110 755 -42 270 -67 438 -95 630 -12 77 -27 181 -35 230 -7 50
-21 137 -29 195 -9 58 -25 166 -36 240 -11 74 -30 196 -41 270 -11 74 -27 180
-35 235 -8 55 -24 156 -34 225 -10 69 -26 170 -34 225 -8 55 -24 161 -35 235
-33 215 -90 596 -106 705 -8 55 -24 159 -35 230 -11 72 -31 207 -45 300 -14
94 -29 197 -35 230 -5 33 -18 121 -30 195 -11 74 -27 176 -35 225 -8 50 -24
149 -35 220 -11 72 -29 182 -40 245 -11 63 -27 153 -35 200 -44 257 -57 332
-70 395 -8 39 -23 122 -35 185 -11 63 -27 147 -35 185 -8 39 -19 95 -24 125
-11 63 -109 536 -141 685 -12 55 -28 127 -35 160 -20 99 -63 291 -101 450 -19
83 -44 188 -55 235 -45 193 -60 254 -104 430 -26 102 -58 230 -72 285 -27 110
-165 631 -188 710 -8 28 -34 122 -59 210 -24 88 -70 248 -101 355 -31 107 -63
215 -70 240 -51 176 -127 426 -157 515 -5 17 -40 129 -78 250 -72 234 -176
567 -266 855 -52 164 -76 243 -108 350 -8 25 -40 126 -71 225 -31 99 -63 200
-70 225 -104 344 -281 886 -336 1024 -10 27 -19 53 -19 57 0 5 -15 48 -34 97
-19 48 -55 141 -80 207 -40 107 -132 337 -156 390 -4 11 -54 124 -109 252 -55
127 -119 274 -143 325 -135 293 -416 845 -518 1018 -16 28 -30 53 -30 55 0 7
-178 313 -292 503 l-110 182 -974 0 -974 0 0 -31250z"/>
<path d="M235620 51185 c0 -15 8 -52 18 -83 15 -51 17 -105 17 -472 0 -290 -4
-435 -13 -480 -7 -36 -19 -128 -27 -205 -8 -78 -18 -152 -23 -166 -6 -14 -13
-56 -17 -94 -4 -39 -13 -86 -20 -105 -7 -20 -16 -60 -20 -90 -4 -30 -13 -66
-20 -80 -7 -14 -15 -45 -19 -70 -3 -25 -13 -65 -21 -90 -8 -25 -24 -79 -35
-120 -12 -41 -28 -95 -36 -120 -8 -25 -21 -65 -29 -90 -24 -78 -53 -156 -64
-176 -11 -19 -34 -82 -53 -144 -6 -19 -17 -44 -24 -55 -8 -11 -14 -25 -14 -33
0 -7 -12 -39 -26 -70 -14 -31 -35 -77 -46 -102 -11 -25 -24 -52 -29 -60 -5 -8
-12 -22 -15 -30 -3 -8 -32 -69 -65 -135 -32 -66 -63 -131 -69 -145 -6 -14 -21
-43 -35 -65 -13 -22 -31 -53 -39 -70 -9 -16 -34 -61 -56 -100 -22 -38 -47 -85
-56 -104 -8 -19 -22 -40 -30 -48 -8 -8 -14 -18 -14 -23 0 -8 -37 -68 -102
-162 -10 -15 -18 -30 -18 -33 0 -3 -15 -27 -34 -53 -18 -27 -41 -62 -50 -78
-9 -16 -34 -54 -56 -84 -23 -30 -60 -84 -84 -120 -24 -36 -57 -81 -72 -101
-16 -20 -36 -47 -44 -59 -22 -32 -215 -281 -237 -305 -10 -11 -49 -58 -87
-105 -38 -47 -72 -87 -76 -90 -3 -3 -30 -34 -59 -70 -30 -36 -57 -67 -60 -70
-3 -3 -28 -30 -55 -60 -105 -117 -185 -201 -341 -360 -200 -202 -290 -288
-505 -484 -91 -83 -221 -197 -280 -245 -36 -30 -67 -57 -70 -60 -3 -4 -54 -47
-115 -96 -60 -48 -114 -94 -120 -100 -5 -7 -15 -14 -21 -16 -6 -2 -31 -21 -55
-41 -24 -20 -93 -75 -154 -122 -60 -46 -118 -92 -127 -100 -10 -9 -21 -16 -26
-16 -4 0 -15 -8 -24 -17 -9 -10 -33 -29 -53 -43 -20 -14 -44 -32 -53 -41 -9
-9 -24 -19 -32 -22 -8 -4 -42 -27 -75 -52 -33 -25 -85 -62 -115 -83 -30 -20
-57 -39 -60 -42 -3 -3 -25 -18 -50 -35 -25 -16 -57 -39 -71 -50 -14 -11 -35
-26 -45 -32 -33 -21 -93 -62 -121 -81 -16 -10 -48 -32 -73 -48 -25 -16 -49
-32 -55 -37 -5 -4 -32 -22 -60 -40 -27 -17 -54 -35 -60 -39 -29 -23 -148 -98
-155 -98 -4 0 -14 -7 -21 -16 -7 -9 -22 -20 -34 -26 -38 -18 -80 -43 -170
-102 -49 -32 -106 -69 -125 -81 -19 -13 -66 -43 -105 -67 -38 -25 -83 -53
-100 -62 -16 -9 -50 -30 -75 -46 -25 -16 -54 -34 -65 -40 -11 -6 -38 -22 -60
-35 -22 -13 -53 -32 -70 -41 -16 -9 -32 -20 -35 -24 -3 -4 -32 -22 -65 -39
-33 -18 -76 -42 -96 -54 -20 -12 -67 -40 -104 -62 -37 -22 -83 -50 -103 -62
-21 -12 -51 -30 -68 -40 -29 -17 -110 -65 -202 -120 -20 -13 -50 -30 -67 -38
-16 -9 -47 -26 -67 -38 -20 -12 -98 -58 -173 -102 -75 -44 -152 -89 -170 -100
-159 -94 -214 -125 -223 -125 -6 0 -12 -4 -14 -8 -1 -5 -34 -26 -71 -48 -38
-21 -85 -49 -105 -61 -21 -12 -50 -29 -67 -37 -16 -9 -43 -25 -60 -36 -16 -11
-47 -28 -67 -37 -21 -9 -38 -19 -38 -23 0 -4 -15 -13 -32 -21 -18 -7 -35 -16
-38 -19 -3 -4 -51 -33 -108 -66 -57 -32 -120 -69 -140 -81 -20 -12 -46 -27
-57 -33 -11 -6 -40 -24 -65 -40 -25 -16 -58 -36 -75 -45 -16 -8 -43 -24 -60
-35 -16 -11 -43 -27 -60 -36 -16 -9 -32 -20 -35 -24 -3 -3 -30 -21 -60 -39
-30 -18 -75 -45 -100 -61 -25 -17 -52 -33 -60 -37 -17 -8 -80 -48 -96 -62 -5
-4 -21 -14 -35 -21 -13 -7 -76 -47 -139 -88 -63 -41 -133 -87 -155 -101 -22
-14 -46 -32 -53 -38 -7 -7 -17 -13 -22 -13 -5 0 -15 -6 -22 -13 -7 -7 -35 -27
-63 -44 -27 -18 -54 -36 -60 -40 -5 -5 -30 -21 -55 -38 -25 -16 -47 -33 -50
-36 -3 -3 -30 -23 -60 -43 -30 -21 -57 -41 -60 -45 -3 -4 -25 -19 -50 -34 -25
-15 -65 -43 -90 -62 -25 -18 -63 -46 -85 -62 -21 -15 -47 -35 -56 -43 -9 -8
-29 -24 -44 -35 -34 -24 -286 -225 -308 -245 -8 -8 -26 -23 -39 -33 -64 -48
-141 -111 -170 -138 -18 -17 -71 -63 -118 -102 -220 -187 -710 -670 -889 -878
-35 -41 -84 -96 -110 -124 -26 -27 -71 -79 -100 -115 -30 -36 -57 -67 -61 -70
-4 -3 -11 -12 -16 -21 -11 -20 -67 -89 -106 -130 -16 -17 -36 -42 -45 -57 -10
-15 -44 -61 -75 -102 -82 -107 -90 -117 -143 -195 -27 -38 -51 -72 -55 -75 -3
-3 -30 -42 -60 -87 -30 -46 -58 -83 -62 -83 -4 0 -8 -5 -8 -12 0 -6 -17 -34
-38 -62 -21 -28 -43 -62 -50 -76 -7 -14 -21 -38 -32 -55 -11 -16 -27 -43 -36
-60 -9 -16 -22 -37 -29 -45 -7 -8 -25 -39 -40 -68 -15 -29 -31 -55 -36 -58 -5
-3 -16 -20 -24 -37 -8 -18 -25 -48 -37 -67 -28 -46 -64 -108 -83 -145 -8 -16
-26 -48 -40 -70 -13 -22 -29 -51 -34 -65 -6 -14 -16 -32 -21 -40 -6 -8 -15
-26 -20 -40 -6 -14 -14 -32 -19 -40 -36 -59 -261 -529 -261 -545 0 -3 -12 -32
-26 -63 -27 -60 -46 -102 -74 -167 -10 -22 -27 -61 -39 -88 -11 -26 -21 -53
-21 -60 -1 -6 -9 -30 -20 -52 -11 -22 -19 -44 -20 -48 0 -5 -7 -23 -15 -40
-18 -41 -44 -111 -60 -167 -7 -25 -20 -58 -29 -75 -9 -16 -16 -39 -16 -50 0
-11 -6 -29 -14 -40 -7 -11 -17 -36 -21 -55 -4 -19 -16 -54 -26 -77 -11 -23
-19 -49 -19 -58 0 -9 -5 -26 -11 -37 -6 -11 -20 -50 -31 -87 -10 -36 -28 -95
-39 -131 -11 -36 -29 -96 -40 -135 -11 -38 -29 -101 -40 -140 -11 -38 -26 -95
-34 -125 -8 -30 -20 -75 -28 -100 -20 -64 -36 -124 -53 -203 -7 -37 -18 -76
-23 -86 -6 -9 -13 -42 -17 -72 -3 -30 -12 -68 -19 -84 -7 -17 -15 -57 -19 -89
-4 -32 -14 -75 -21 -95 -7 -20 -16 -61 -20 -91 -4 -30 -13 -77 -20 -105 -8
-27 -17 -77 -21 -110 -3 -33 -12 -74 -19 -91 -7 -17 -16 -60 -20 -95 -3 -35
-12 -84 -20 -109 -7 -25 -16 -79 -20 -120 -3 -41 -12 -100 -20 -130 -7 -30
-16 -89 -20 -130 -3 -41 -12 -97 -20 -125 -7 -27 -16 -86 -20 -130 -4 -44 -13
-109 -20 -145 -7 -36 -16 -108 -20 -160 -4 -52 -13 -122 -20 -155 -7 -33 -16
-109 -19 -170 -4 -60 -13 -153 -21 -205 -8 -52 -19 -180 -25 -285 -5 -104 -14
-206 -19 -225 -5 -19 -12 -107 -15 -195 -3 -88 -13 -243 -21 -345 -8 -102 -19
-279 -25 -395 -6 -115 -16 -295 -21 -400 -12 -203 -6 -801 10 -1115 6 -102 13
-270 16 -375 3 -104 13 -257 20 -340 8 -82 17 -217 20 -300 4 -82 10 -173 15
-202 5 -28 14 -121 20 -205 6 -84 17 -189 25 -233 7 -44 17 -127 20 -185 4
-58 13 -134 20 -170 7 -36 16 -105 20 -155 3 -49 12 -117 20 -150 7 -33 16
-94 20 -135 3 -41 12 -97 20 -125 7 -27 16 -84 20 -125 4 -41 13 -97 20 -125
7 -27 17 -81 20 -120 4 -38 11 -78 16 -87 5 -10 14 -55 20 -100 6 -46 17 -103
24 -128 8 -25 17 -70 20 -100 3 -30 12 -75 20 -100 8 -25 17 -69 20 -99 4 -30
13 -68 20 -85 7 -17 16 -61 20 -98 6 -57 10 -68 25 -68 21 0 40 28 40 57 0 10
9 36 20 58 11 22 20 43 20 49 0 5 9 30 21 55 44 97 58 128 84 191 15 36 36 85
47 110 11 25 26 59 33 75 19 47 53 123 104 235 6 14 15 32 20 40 5 8 21 44 36
80 15 36 33 79 40 95 7 17 16 42 20 57 4 15 13 32 21 39 8 6 14 18 14 27 0 8
9 36 21 61 12 25 30 66 42 91 11 25 24 52 29 60 4 8 13 26 19 40 6 14 15 33
20 43 5 9 13 25 18 35 5 9 14 28 20 42 6 14 29 57 51 95 22 39 47 84 56 100 8
17 28 53 44 80 16 28 36 64 44 80 9 17 25 44 36 60 11 17 24 41 30 55 14 33
16 38 45 85 14 22 32 54 41 70 8 17 26 48 40 70 13 22 31 54 40 70 8 17 25 46
37 67 59 97 104 173 124 206 13 20 30 51 39 67 8 17 25 46 37 67 56 93 87 148
87 153 0 3 8 18 18 33 11 15 32 47 48 72 16 25 31 47 34 50 3 3 11 16 18 30 7
14 32 57 57 95 24 39 52 84 61 100 9 17 45 73 79 125 34 52 70 109 78 127 9
17 20 33 24 35 9 3 58 76 64 93 3 8 170 264 235 360 8 11 31 45 51 75 21 30
43 59 50 63 7 4 13 12 13 18 0 8 71 112 98 145 5 5 15 21 22 34 7 13 17 29 21
34 29 37 58 77 84 116 17 25 36 49 42 53 7 4 13 13 13 18 0 6 28 49 63 95 34
47 99 135 145 197 45 62 88 119 95 127 6 8 24 34 40 58 28 44 31 48 69 95 13
15 31 37 40 50 10 12 56 71 103 130 47 60 85 111 85 115 0 4 17 26 38 50 20
23 45 52 54 65 32 41 152 191 166 207 7 8 34 42 60 76 26 34 54 68 62 76 8 9
29 33 45 53 55 69 147 180 173 210 15 16 32 37 37 46 6 9 35 45 65 80 108 123
107 122 192 225 37 47 76 92 86 102 32 35 84 94 157 180 39 48 87 103 106 123
19 20 68 76 109 125 77 91 127 148 235 269 34 39 96 108 136 155 41 47 83 95
94 106 21 22 31 33 155 173 41 47 82 92 90 101 104 113 205 224 283 312 53 59
104 115 114 126 10 10 61 65 113 121 52 57 111 120 130 140 19 20 86 92 149
161 63 69 144 156 180 194 36 38 77 81 91 96 14 15 66 70 115 122 50 51 105
112 124 133 32 38 71 79 336 356 113 117 175 183 420 444 77 82 160 170 185
196 25 25 133 137 240 249 107 111 236 244 285 295 50 50 119 123 154 161 36
38 166 173 290 300 125 127 339 347 476 489 138 141 300 307 360 369 61 62
175 182 255 267 79 85 192 204 251 264 228 236 232 240 408 434 22 24 255 270
346 366 80 84 133 141 192 210 33 39 91 102 129 141 97 99 175 184 273 294 83
94 217 239 339 368 35 37 87 94 115 126 29 33 75 85 102 116 28 30 66 72 85
94 19 21 53 57 75 80 22 23 67 73 100 110 33 38 65 74 70 80 6 6 33 38 60 71
28 33 59 69 70 81 11 11 45 49 75 84 102 118 234 265 245 275 7 6 50 57 95
115 46 58 93 114 104 126 12 11 44 47 71 79 60 71 118 138 125 145 3 3 28 32
55 65 28 32 57 66 65 75 9 9 29 34 45 55 16 22 45 58 65 81 82 93 109 126 182
215 42 52 92 111 111 132 33 38 65 78 274 349 57 73 110 140 118 149 8 9 15
19 15 22 0 11 63 97 71 97 4 0 15 7 23 16 15 14 16 13 16 -10 0 -15 -4 -34 -9
-44 -9 -15 -249 -497 -279 -560 -7 -15 -17 -34 -22 -42 -5 -8 -26 -46 -46 -85
-19 -38 -55 -106 -79 -150 -24 -44 -52 -96 -62 -115 -79 -146 -98 -180 -119
-215 -13 -22 -31 -53 -39 -70 -9 -16 -36 -61 -60 -100 -25 -38 -50 -81 -57
-95 -7 -14 -27 -46 -45 -72 -18 -26 -33 -51 -33 -54 0 -8 -62 -106 -91 -144
-11 -14 -23 -34 -28 -46 -5 -11 -33 -56 -63 -100 -30 -43 -57 -86 -61 -94 -4
-8 -20 -35 -37 -60 -16 -25 -43 -68 -59 -96 -17 -29 -38 -57 -46 -64 -8 -7
-15 -17 -15 -23 0 -11 -45 -82 -67 -105 -7 -7 -13 -18 -13 -24 0 -5 -15 -28
-34 -51 -18 -23 -41 -55 -50 -72 -14 -26 -69 -109 -94 -140 -4 -5 -22 -32 -40
-60 -53 -82 -56 -87 -79 -115 -13 -15 -23 -32 -23 -37 0 -6 -9 -18 -20 -28
-11 -10 -20 -22 -20 -28 0 -5 -10 -22 -22 -37 -26 -32 -74 -102 -121 -175 -17
-27 -35 -54 -40 -60 -10 -12 -66 -91 -142 -200 -30 -44 -75 -107 -100 -140
-24 -33 -83 -116 -130 -185 -48 -69 -106 -152 -131 -185 -24 -33 -55 -76 -68
-95 -13 -19 -37 -53 -54 -75 -51 -66 -61 -79 -257 -346 -16 -23 -37 -51 -45
-64 -40 -59 -59 -85 -110 -152 -30 -40 -68 -90 -84 -112 -17 -23 -33 -41 -38
-41 -4 0 -8 -5 -8 -11 0 -9 -55 -83 -103 -139 -7 -8 -26 -35 -42 -60 -17 -24
-37 -52 -45 -61 -8 -8 -22 -26 -30 -39 -15 -23 -99 -133 -122 -160 -12 -14
-50 -63 -202 -265 -37 -49 -74 -93 -82 -98 -8 -4 -14 -13 -14 -18 0 -9 -30
-50 -118 -158 -15 -18 -31 -41 -36 -50 -8 -13 -130 -170 -184 -236 -9 -11 -45
-56 -79 -100 -35 -44 -72 -89 -82 -100 -10 -11 -49 -60 -87 -110 -38 -49 -73
-96 -79 -103 -5 -7 -17 -21 -25 -30 -13 -15 -41 -50 -143 -177 -18 -22 -51
-60 -74 -85 -24 -25 -43 -48 -43 -51 0 -7 -97 -131 -109 -139 -4 -3 -43 -50
-88 -105 -44 -55 -91 -112 -104 -126 -23 -24 -64 -74 -126 -149 -15 -19 -35
-42 -43 -51 -55 -59 -94 -104 -155 -179 -38 -47 -72 -87 -76 -90 -3 -3 -30
-34 -60 -70 -29 -36 -56 -67 -60 -70 -4 -3 -21 -22 -37 -43 -33 -41 -126 -149
-156 -180 -10 -11 -48 -56 -84 -101 -63 -78 -87 -104 -179 -205 -65 -70 -67
-73 -104 -120 -29 -38 -100 -118 -149 -170 -8 -9 -55 -65 -103 -124 -49 -59
-105 -124 -125 -145 -21 -21 -73 -80 -117 -131 -44 -52 -87 -102 -95 -111 -34
-36 -131 -150 -202 -235 -41 -49 -88 -103 -104 -120 -16 -16 -66 -76 -111
-131 -45 -56 -89 -109 -97 -117 -9 -8 -37 -42 -63 -75 -58 -71 -144 -170 -198
-227 -38 -40 -151 -173 -279 -329 -32 -39 -81 -98 -110 -130 -69 -80 -75 -88
-157 -191 -39 -49 -74 -92 -78 -95 -4 -3 -119 -144 -256 -315 -137 -170 -254
-317 -262 -325 -7 -8 -60 -76 -118 -150 -57 -74 -110 -142 -117 -150 -17 -19
-59 -72 -83 -106 -38 -52 -184 -239 -217 -277 -18 -21 -35 -44 -37 -50 -2 -7
-30 -43 -61 -82 -57 -72 -303 -397 -352 -466 -15 -21 -44 -61 -65 -88 -21 -27
-56 -75 -78 -105 -80 -112 -124 -171 -139 -188 -8 -9 -20 -27 -27 -40 -7 -13
-35 -53 -63 -90 -28 -37 -62 -83 -76 -103 -14 -20 -30 -42 -35 -48 -6 -7 -41
-59 -80 -117 -38 -58 -75 -112 -83 -120 -33 -36 -522 -763 -538 -800 -6 -14
-18 -31 -27 -39 -10 -7 -17 -18 -17 -23 0 -5 -5 -14 -10 -21 -14 -17 -140
-208 -140 -212 0 -2 -10 -19 -22 -38 -13 -19 -48 -73 -78 -121 -30 -48 -74
-117 -97 -152 -24 -36 -43 -69 -43 -74 0 -4 -7 -14 -16 -21 -9 -7 -20 -22 -25
-34 -5 -11 -23 -40 -39 -65 -16 -25 -34 -54 -40 -65 -6 -11 -22 -38 -35 -60
-14 -22 -32 -53 -41 -70 -8 -16 -25 -47 -37 -67 -12 -20 -55 -94 -95 -165 -40
-70 -77 -135 -82 -143 -5 -8 -20 -35 -33 -60 -50 -98 -131 -245 -136 -250 -3
-3 -17 -25 -29 -50 -54 -104 -154 -287 -187 -345 -13 -22 -38 -69 -55 -105
-18 -36 -36 -72 -41 -80 -5 -8 -14 -26 -19 -40 -6 -14 -15 -32 -20 -40 -6 -8
-15 -26 -20 -40 -6 -14 -15 -32 -20 -40 -6 -8 -15 -26 -20 -40 -6 -14 -15 -32
-20 -40 -6 -8 -13 -22 -16 -30 -6 -19 -27 -62 -102 -220 -90 -188 -112 -238
-112 -248 0 -5 -6 -15 -14 -21 -8 -7 -17 -27 -20 -45 -4 -19 -13 -39 -21 -46
-8 -7 -15 -17 -15 -22 0 -8 -10 -31 -65 -153 -7 -16 -23 -52 -35 -80 -11 -27
-30 -67 -40 -87 -11 -20 -20 -42 -20 -48 0 -6 -12 -37 -26 -68 -41 -91 -51
-113 -78 -182 -15 -36 -33 -78 -41 -93 -8 -16 -15 -34 -15 -40 0 -7 -9 -29
-20 -50 -11 -20 -20 -42 -20 -48 0 -7 -8 -30 -19 -53 -21 -46 -56 -138 -67
-176 -3 -14 -13 -34 -20 -45 -8 -11 -14 -25 -14 -33 0 -7 -8 -32 -19 -55 -10
-23 -22 -57 -26 -75 -4 -18 -13 -45 -21 -60 -8 -15 -14 -36 -14 -47 0 -11 -7
-30 -15 -41 -8 -12 -19 -39 -24 -60 -12 -49 -47 -149 -67 -191 -7 -17 -14 -40
-14 -51 0 -11 -9 -39 -20 -63 -11 -24 -20 -52 -20 -62 0 -11 -7 -33 -15 -50
-8 -18 -22 -56 -30 -84 -8 -29 -22 -77 -30 -105 -8 -29 -22 -67 -30 -85 -8
-17 -15 -39 -15 -50 0 -10 -9 -45 -19 -78 -19 -56 -44 -144 -70 -242 -21 -81
-34 -128 -52 -193 -9 -36 -20 -86 -24 -112 -3 -26 -10 -50 -14 -53 -5 -2 -12
-31 -16 -62 -3 -32 -15 -91 -26 -132 -10 -41 -19 -87 -19 -102 0 -14 -6 -44
-14 -65 -7 -22 -17 -69 -20 -104 -4 -36 -14 -85 -21 -110 -8 -25 -19 -85 -24
-134 -6 -49 -15 -94 -20 -100 -5 -6 -12 -42 -16 -81 -3 -38 -13 -93 -20 -120
-8 -28 -19 -89 -24 -135 -5 -47 -14 -97 -20 -113 -6 -15 -13 -64 -17 -110 -3
-45 -12 -110 -20 -144 -7 -34 -18 -117 -24 -185 -5 -68 -14 -139 -20 -158 -5
-19 -14 -102 -20 -184 -6 -83 -15 -177 -20 -211 -26 -160 -30 -1471 -5 -1478
6 -1 14 27 18 63 4 36 14 88 22 116 8 28 15 62 15 75 0 14 7 49 15 79 8 30 20
80 25 111 6 32 17 70 25 85 8 16 15 38 15 49 0 11 9 40 20 64 11 24 20 51 20
60 0 9 9 33 20 54 11 20 20 45 20 54 1 10 9 36 20 58 11 22 19 47 20 55 0 8 9
30 20 48 11 18 20 38 20 45 0 6 7 25 16 42 8 16 26 58 40 92 25 61 129 270
194 388 18 33 44 80 57 105 13 24 29 51 36 60 7 8 19 26 25 40 7 14 21 39 32
55 11 17 27 43 36 59 9 16 20 34 25 40 17 20 99 148 100 154 0 4 16 27 34 52
19 25 55 77 82 115 26 39 53 77 60 85 31 35 183 233 183 239 0 3 15 22 33 41
17 20 72 85 122 145 95 117 126 152 219 249 32 33 70 75 83 91 68 81 346 357
499 495 34 30 99 89 144 130 46 41 108 95 139 120 31 25 66 55 78 67 12 12 57
48 100 79 43 32 86 64 95 73 32 30 108 91 193 156 11 8 36 27 56 42 20 16 47
35 59 43 12 8 69 51 128 95 107 80 231 167 280 195 30 17 33 19 86 60 21 17
45 30 52 30 8 0 14 4 14 8 0 8 120 91 145 101 6 2 23 15 38 27 16 13 32 24 37
24 5 0 39 21 77 46 37 25 84 55 103 66 19 10 51 29 71 41 117 70 148 87 158
87 6 0 11 5 11 10 0 6 10 14 23 19 12 5 47 23 77 41 30 18 98 55 150 82 52 28
102 56 110 63 8 7 26 16 40 20 14 4 31 12 38 18 15 12 45 28 187 101 61 31
117 61 125 65 8 5 71 36 140 69 291 139 387 185 425 202 22 10 79 36 128 59
344 162 342 161 356 161 7 0 29 8 49 19 20 10 57 28 82 39 25 11 66 29 91 41
25 12 52 21 60 21 8 0 28 9 44 20 17 11 38 20 48 20 9 0 34 9 54 20 21 11 43
20 50 20 6 0 24 7 40 15 15 8 57 26 93 41 36 14 83 35 106 45 23 10 46 19 53
19 6 0 28 9 48 20 21 11 45 20 53 20 9 0 24 6 35 14 11 7 36 19 55 24 68 21
139 49 152 59 7 6 24 14 38 18 37 10 129 45 176 66 23 11 46 19 52 19 6 0 31
9 54 19 24 11 70 30 103 42 33 12 78 30 101 40 23 11 46 19 52 19 6 0 26 6 44
14 18 8 67 26 108 41 41 16 93 36 116 46 22 11 47 19 55 19 8 0 24 7 35 15 10
8 25 15 33 15 8 0 32 9 55 19 23 10 75 31 116 46 41 16 93 36 116 46 22 11 48
19 57 19 9 0 18 4 22 9 3 5 30 17 60 25 30 9 57 21 60 26 3 6 14 10 23 10 9 0
40 12 67 25 28 14 55 25 62 25 6 0 24 7 40 15 59 30 142 65 156 65 8 0 20 6
26 14 7 8 27 18 44 21 18 4 39 13 47 20 8 7 26 16 40 20 14 3 41 13 60 22 19
9 53 23 75 33 22 9 60 26 85 38 25 11 70 31 100 45 104 47 235 109 250 118 8
5 26 14 40 19 14 6 32 15 40 20 8 6 26 15 40 20 14 6 32 15 40 20 8 6 26 15
40 20 14 6 32 14 40 19 8 6 65 35 125 66 61 32 142 74 180 95 103 56 204 111
250 134 22 11 42 23 45 27 3 4 32 21 65 39 33 18 80 45 105 61 25 15 59 35 75
44 17 8 44 24 60 35 17 11 43 27 59 36 16 9 34 20 40 25 23 19 87 59 95 59 5
0 15 7 22 16 7 9 22 20 34 26 29 13 86 48 139 86 26 17 49 32 52 32 3 0 29 18
58 40 29 22 58 40 64 40 6 0 15 6 19 13 4 6 28 25 53 42 25 16 50 34 55 40 6
6 48 36 95 68 169 114 328 234 580 436 113 90 207 167 210 171 4 5 119 104
155 132 13 11 45 39 126 110 35 31 75 66 88 77 261 226 765 732 1061 1066 73
83 136 152 140 155 3 3 46 55 95 115 50 61 97 117 106 125 9 8 54 62 100 120
46 58 96 119 112 136 15 17 36 42 45 56 22 35 161 218 181 240 9 10 24 28 33
40 10 13 41 52 69 88 47 59 88 117 114 159 6 9 16 23 23 31 16 18 98 133 153
215 22 32 43 62 47 65 4 3 66 93 137 200 71 107 133 196 136 198 4 2 27 35 50
74 24 38 62 98 85 132 22 34 43 69 46 77 3 8 30 51 60 95 30 43 69 105 88 138
19 32 43 70 52 85 9 14 36 59 60 99 24 40 53 90 65 110 13 20 30 51 38 67 9
17 27 48 40 70 13 22 27 47 31 55 7 15 48 86 91 158 11 21 37 69 57 107 20 39
54 102 76 140 22 39 66 121 97 183 32 62 73 140 90 175 18 34 33 70 33 79 0 9
4 20 10 23 9 6 41 68 69 135 6 14 15 32 20 40 5 8 19 38 31 65 12 28 42 93 67
145 25 52 51 109 58 125 31 71 54 124 79 177 14 31 26 62 26 67 0 6 9 28 20
48 11 21 20 45 20 54 0 9 6 22 14 28 8 7 18 27 21 44 4 18 13 41 20 52 7 11
16 36 20 55 4 19 11 40 15 45 8 10 35 80 87 220 14 39 41 108 59 155 18 47 38
105 44 130 7 25 15 50 20 55 4 6 11 26 14 45 4 19 13 51 21 70 17 44 42 121
60 183 7 26 18 53 23 60 5 7 13 32 17 57 4 25 13 56 20 70 7 14 16 41 19 60 4
19 13 51 21 70 14 38 38 129 59 226 7 34 16 66 20 72 3 6 11 34 16 64 5 29 16
76 24 103 18 59 44 170 58 240 5 28 15 68 23 90 7 22 16 65 19 96 3 31 12 71
20 90 7 19 17 63 20 99 4 36 13 88 21 115 7 28 17 81 20 120 4 38 11 80 17 95
5 14 14 63 19 110 5 47 14 105 19 130 6 25 17 99 25 165 9 66 20 152 25 190
24 176 43 343 55 495 8 91 18 212 24 270 9 94 17 260 40 805 12 311 -16 1221
-44 1420 -8 55 -17 152 -20 215 -4 63 -13 151 -20 195 -8 44 -17 118 -20 165
-4 47 -13 119 -21 160 -7 41 -16 111 -20 155 -3 44 -12 108 -20 141 -7 34 -16
93 -19 130 -4 38 -13 92 -21 120 -8 29 -18 92 -23 140 -5 49 -14 100 -19 114
-5 14 -13 54 -16 90 -4 36 -14 88 -21 115 -8 28 -19 87 -24 133 -6 45 -15 90
-20 100 -5 10 -14 47 -19 83 -5 35 -17 93 -25 129 -32 135 -39 167 -52 247 -8
45 -18 90 -23 100 -5 10 -13 44 -17 76 -3 32 -12 73 -20 90 -7 18 -16 55 -20
82 -4 28 -11 58 -17 68 -5 10 -15 48 -23 85 -18 86 -42 179 -56 217 -6 17 -17
55 -25 85 -27 111 -53 200 -63 219 -6 11 -11 28 -11 38 0 10 -12 56 -26 103
-14 47 -34 117 -45 155 -11 39 -25 84 -31 100 -5 17 -15 50 -22 75 -6 25 -16
54 -22 65 -7 11 -15 36 -18 55 -4 19 -13 51 -21 70 -19 50 -44 128 -56 175 -6
22 -15 49 -20 60 -14 34 -49 138 -60 180 -6 21 -14 44 -18 50 -5 5 -16 33 -24
60 -27 87 -49 149 -63 182 -8 17 -14 37 -14 45 0 7 -9 30 -20 51 -11 20 -20
43 -20 50 0 7 -9 29 -20 50 -11 20 -20 43 -20 49 -1 7 -9 31 -20 53 -11 22
-19 47 -20 55 0 9 -6 25 -14 36 -8 11 -19 40 -26 64 -7 24 -18 53 -26 64 -8
11 -14 27 -14 35 0 7 -8 32 -19 55 -23 50 -51 122 -81 201 -12 33 -30 78 -41
101 -10 23 -19 44 -19 48 0 4 -12 33 -26 64 -25 55 -37 83 -74 167 -10 22 -30
67 -45 100 -15 33 -34 76 -42 95 -9 19 -25 55 -36 80 -11 25 -28 63 -37 85
-10 22 -46 99 -80 170 -34 72 -68 144 -75 160 -82 180 -245 511 -319 650 -24
44 -69 130 -100 190 -31 61 -76 146 -100 190 -25 44 -59 109 -77 145 -19 36
-39 72 -45 80 -7 8 -35 60 -64 115 -29 55 -65 119 -80 142 -16 22 -31 52 -35
65 -4 12 -13 30 -20 38 -6 8 -27 41 -46 74 -19 32 -44 75 -56 95 -12 20 -29
50 -37 66 -9 17 -21 39 -28 50 -83 132 -101 162 -150 245 -17 30 -47 76 -65
102 -18 26 -33 50 -33 53 0 3 -8 18 -18 33 -66 96 -101 152 -107 171 -3 11
-10 21 -15 21 -8 0 -48 59 -62 93 -4 9 -12 23 -18 30 -6 6 -25 35 -43 62 -17
28 -35 55 -40 60 -4 6 -22 33 -39 60 -18 28 -35 52 -38 55 -3 3 -34 48 -69
100 -81 122 -124 184 -132 190 -3 3 -12 16 -19 29 -7 14 -17 30 -21 35 -38 48
-59 77 -79 111 -13 22 -30 47 -37 55 -7 8 -61 80 -120 160 -59 80 -133 177
-165 217 -32 39 -58 76 -58 82 0 6 -4 11 -8 11 -4 0 -39 38 -77 85 -39 47 -85
102 -102 122 l-33 36 0 -28z"/>
<path d="M205145 14029 c-504 -30 -932 -294 -1142 -705 -57 -111 -94 -216
-120 -337 -26 -118 -25 -438 0 -557 100 -468 429 -829 888 -974 171 -54 278
-70 484 -69 232 0 440 35 647 109 90 32 287 133 351 179 l47 35 0 520 0 520
-275 0 -276 0 1 -232 c0 -128 1 -299 0 -379 l0 -146 -58 -26 c-141 -61 -202
-72 -402 -72 -166 0 -193 2 -260 23 -251 79 -442 259 -527 496 -45 128 -58
344 -29 483 71 336 323 572 666 624 108 16 317 6 408 -20 133 -39 269 -117
369 -213 27 -27 46 -38 55 -32 7 4 93 82 191 173 l178 165 -63 64 c-265 269
-661 398 -1133 371z"/>
<path d="M229489 14029 c-623 -40 -1113 -445 -1240 -1024 -29 -133 -36 -360
-15 -504 43 -292 170 -539 382 -741 285 -273 671 -403 1101 -371 168 12 264
31 403 78 124 42 199 78 296 144 86 58 246 207 242 225 -2 7 -85 89 -186 182
l-182 168 -53 -51 c-107 -104 -212 -169 -347 -216 -52 -17 -95 -23 -212 -27
-210 -6 -339 22 -476 106 -175 105 -303 277 -359 483 -14 49 -18 102 -18 229
0 143 3 176 23 245 27 93 94 225 149 292 88 108 242 207 393 254 65 21 96 24
240 24 191 0 267 -16 401 -86 74 -39 212 -146 241 -188 14 -19 23 -12 199 150
101 93 185 176 187 183 4 18 -146 157 -233 216 -259 175 -571 252 -936 229z"/>
<path d="M241000 14029 c-200 -14 -366 -57 -545 -144 -316 -152 -560 -426
-664 -745 -47 -142 -63 -256 -63 -430 0 -129 4 -187 21 -266 115 -551 501
-920 1083 -1036 146 -29 421 -31 568 -4 575 103 993 494 1105 1031 23 108 31
337 16 450 -58 446 -326 812 -734 1005 -245 116 -489 159 -787 139z m304 -513
c157 -31 275 -95 396 -216 97 -98 163 -210 202 -345 20 -69 23 -102 23 -245 0
-179 -10 -237 -62 -354 -95 -214 -273 -372 -493 -438 -83 -25 -308 -36 -404
-19 -148 26 -296 103 -408 214 -130 129 -207 293 -229 493 -40 357 120 684
410 833 84 43 157 69 229 81 79 13 256 11 336 -4z"/>
<path d="M207091 12725 c-309 -696 -565 -1274 -568 -1285 -5 -20 1 -20 294
-20 l299 0 115 278 114 277 599 0 598 0 114 -275 113 -275 310 -3 c302 -2 310
-2 303 17 -4 10 -261 588 -572 1285 l-565 1265 -295 1 -295 0 -564 -1265z
m1063 186 c108 -260 196 -478 196 -482 0 -5 -182 -9 -405 -9 -223 0 -405 3
-405 7 0 24 405 981 411 971 4 -7 95 -226 203 -487z"/>
<path d="M209660 12705 l0 -1285 648 0 c687 0 918 9 1074 41 339 68 553 242
614 495 22 93 23 260 0 344 -55 211 -179 347 -400 440 l-50 21 62 40 c124 81
221 216 258 359 24 89 23 256 0 335 -79 266 -317 431 -693 480 -92 12 -249 15
-814 15 l-699 0 0 -1285z m1392 817 c120 -33 184 -83 223 -175 18 -43 20 -144
3 -199 -15 -52 -80 -123 -137 -153 -94 -47 -171 -55 -546 -55 l-345 0 0 306 0
306 363 -5 c326 -4 370 -6 439 -25z m113 -1036 c182 -52 263 -156 253 -320 -9
-131 -67 -204 -203 -255 -90 -34 -194 -41 -586 -41 l-379 0 0 321 0 321 428
-4 c367 -4 435 -7 487 -22z"/>
<path d="M212470 12706 l0 -1286 295 0 295 0 0 360 0 360 278 0 277 0 248
-360 249 -360 314 0 c173 0 314 2 314 4 0 4 -386 561 -552 798 l-18 27 85 48
c265 151 404 363 436 668 20 189 -24 410 -108 554 -45 75 -156 198 -228 251
-79 58 -211 126 -305 155 -189 59 -169 58 -902 62 l-678 4 0 -1285z m1258 788
c212 -42 334 -162 364 -356 31 -202 -61 -389 -230 -466 -109 -51 -206 -62
-523 -62 l-279 0 0 450 0 450 295 0 c228 0 313 -4 373 -16z"/>
<path d="M215170 12705 l0 -1285 295 0 295 0 0 1285 0 1285 -295 0 -295 0 0
-1285z"/>
<path d="M216380 12705 l0 -1285 990 0 990 0 0 240 0 240 -700 0 -700 0 2 298
3 297 598 3 597 2 -2 228 -3 227 -597 3 -598 2 0 280 0 280 675 0 675 0 0 235
0 235 -965 0 -965 0 0 -1285z"/>
<path d="M218840 12705 l0 -1285 940 0 940 0 0 245 0 245 -645 0 -645 0 0
1040 0 1040 -295 0 -295 0 0 -1285z"/>
<path d="M222100 12705 l0 -1285 275 0 275 0 2 756 3 757 375 -617 374 -616
136 0 135 0 375 630 375 629 6 -687 c3 -378 7 -724 8 -769 l1 -83 275 0 275 0
0 818 c0 450 -3 1029 -7 1285 l-6 467 -242 0 -242 0 -24 -43 c-61 -110 -915
-1546 -919 -1546 -3 -1 -220 357 -483 794 l-479 795 -244 0 -244 0 0 -1285z"/>
<path d="M226407 13983 c-11 -18 -1137 -2551 -1137 -2557 0 -3 136 -5 301 -4
l301 3 114 275 113 275 595 3 596 2 18 -37 c10 -21 63 -147 118 -280 l98 -243
309 0 c290 0 309 1 303 18 -4 9 -262 587 -573 1285 l-566 1267 -293 0 c-161 0
-295 -3 -297 -7z m496 -1060 c109 -263 197 -484 197 -490 0 -10 -88 -13 -406
-13 -321 0 -405 3 -401 13 73 183 403 967 407 967 3 0 95 -215 203 -477z"/>
<path d="M231070 12705 l0 -1285 295 0 295 0 0 530 0 530 585 0 585 0 2 -527
3 -528 295 0 295 0 3 1283 2 1282 -300 0 -300 0 0 -505 0 -505 -585 0 -585 0
0 505 0 505 -295 0 -295 0 0 -1285z"/>
<path d="M234280 12723 c-311 -696 -568 -1275 -572 -1285 -7 -17 6 -18 295
-18 l302 0 90 218 c49 119 101 245 117 280 l27 62 596 -2 596 -3 113 -275 114
-275 311 -3 c247 -2 309 0 305 10 -2 7 -260 585 -572 1283 l-568 1270 -295 3
-294 2 -565 -1267z m1056 206 c108 -261 199 -482 201 -491 5 -17 -19 -18 -402
-18 -383 0 -407 1 -403 18 9 33 401 972 404 969 2 -2 92 -217 200 -478z"/>
<path d="M236850 12705 l0 -1285 568 0 c312 0 633 5 714 10 388 25 693 145
927 366 110 103 171 187 241 329 93 188 130 356 130 585 0 282 -67 513 -209
723 -166 247 -431 423 -763 508 -176 45 -254 49 -950 49 l-658 0 0 -1285z
m1401 772 c274 -72 453 -234 541 -488 32 -93 33 -97 33 -274 0 -207 -10 -256
-78 -395 -33 -68 -58 -102 -127 -170 -101 -100 -166 -141 -298 -186 -131 -44
-235 -54 -587 -54 l-295 0 0 793 c0 437 3 797 8 801 4 5 165 6 357 3 335 -4
354 -5 446 -30z"/>
<path d="M213015 9428 c-327 -61 -574 -270 -664 -562 -67 -218 -40 -485 67
-664 174 -291 488 -440 863 -410 386 30 689 285 765 643 22 103 19 281 -6 380
-28 112 -97 247 -167 326 -182 205 -406 301 -698 298 -60 -1 -132 -5 -160 -11z
m288 -313 c273 -58 437 -332 376 -627 -57 -274 -332 -440 -618 -373 -174 41
-317 184 -360 360 -20 79 -16 229 8 306 78 251 327 391 594 334z"/>
<path d="M219095 9428 c-327 -61 -574 -270 -664 -562 -67 -218 -40 -485 67
-664 174 -291 488 -440 863 -410 386 30 689 285 765 643 22 103 19 281 -6 380
-28 112 -97 247 -167 326 -182 205 -406 301 -698 298 -60 -1 -132 -5 -160 -11z
m288 -313 c273 -58 437 -332 376 -627 -57 -274 -332 -440 -618 -373 -174 41
-317 184 -360 360 -20 79 -16 229 8 306 78 251 327 391 594 334z"/>
<path d="M220830 9430 c-335 -53 -529 -273 -490 -554 14 -96 49 -164 117 -226
89 -81 168 -114 464 -189 86 -22 180 -49 211 -61 67 -25 124 -79 133 -126 8
-47 -25 -116 -69 -143 -148 -92 -501 -52 -717 80 -27 17 -52 30 -54 28 -2 -2
-30 -64 -63 -137 l-60 -132 26 -19 c208 -148 644 -207 922 -125 153 45 281
146 340 269 28 58 34 83 38 162 8 163 -44 272 -173 357 -73 49 -152 78 -374
136 -259 67 -299 82 -343 129 -29 31 -38 49 -38 75 0 78 43 134 129 167 46 18
77 22 171 22 139 -1 247 -25 368 -83 l83 -39 8 22 c5 12 30 74 55 137 25 63
46 117 46 120 0 15 -163 82 -256 106 -81 21 -127 26 -259 29 -88 2 -185 0
-215 -5z"/>
<path d="M236618 9425 c-306 -58 -482 -253 -466 -514 7 -107 38 -181 102 -245
94 -93 158 -121 485 -206 224 -59 250 -69 301 -120 34 -34 40 -46 40 -84 0
-121 -132 -186 -354 -173 -153 9 -307 54 -421 122 -32 20 -62 32 -66 28 -4 -4
-33 -65 -65 -136 -67 -149 -72 -133 64 -199 166 -80 418 -122 629 -106 176 13
309 60 412 144 114 94 163 196 164 339 1 129 -21 191 -96 272 -78 83 -171 128
-377 183 -350 92 -393 108 -432 161 -25 34 -26 107 -2 149 49 82 185 120 360
100 119 -13 191 -33 289 -79 l81 -38 54 135 c30 74 55 137 54 141 -1 20 -159
84 -292 118 -85 21 -368 26 -464 8z"/>
<path d="M209070 8615 l0 -805 185 0 185 0 0 218 0 219 223 6 c122 3 251 11
286 17 263 45 448 207 496 435 19 89 19 154 0 252 -50 260 -264 424 -591 452
-66 6 -269 11 -451 11 l-333 0 0 -805z m853 472 c55 -26 117 -86 140 -136 30
-68 27 -176 -8 -246 -31 -65 -71 -98 -151 -127 -50 -18 -90 -21 -261 -26
l-203 -5 0 282 0 283 223 -4 c183 -3 229 -7 260 -21z"/>
<path d="M210728 9414 c-5 -4 -8 -367 -8 -806 l0 -798 185 0 185 0 0 225 0
225 173 0 174 0 154 -225 154 -224 198 -1 c156 0 197 3 191 13 -4 6 -83 121
-176 254 -92 133 -168 244 -168 246 0 2 30 22 66 43 165 96 254 261 254 469 0
232 -104 399 -310 498 -153 74 -186 78 -655 84 -225 3 -413 2 -417 -3z m852
-330 c100 -46 149 -115 158 -220 13 -161 -70 -268 -236 -303 -29 -6 -134 -11
-232 -11 l-180 0 0 281 0 281 223 -4 c200 -3 226 -5 267 -24z"/>
<path d="M214260 9270 l0 -150 280 0 281 0 -3 -432 c-3 -392 -5 -437 -21 -473
-41 -91 -112 -130 -224 -123 -88 5 -151 35 -226 109 l-57 58 -101 -120 -100
-119 27 -33 c89 -106 242 -179 413 -196 281 -29 500 69 592 262 62 133 64 153
64 787 l0 575 -462 3 -463 2 0 -150z"/>
<path d="M215560 8615 l0 -805 620 0 620 0 0 150 0 150 -440 0 -440 0 0 185 0
185 375 0 375 0 0 145 0 145 -375 0 -375 0 0 175 0 175 425 0 425 0 0 150 0
150 -605 0 -605 0 0 -805z"/>
<path d="M216920 9265 l0 -155 255 0 255 0 0 -650 0 -650 185 0 185 0 0 650 0
650 255 0 255 0 0 155 0 155 -695 0 -695 0 0 -155z"/>
<path d="M223014 9343 c-19 -43 -180 -404 -358 -803 l-323 -725 185 -3 c142
-2 187 1 193 10 5 7 38 86 75 176 l66 162 373 0 373 0 30 -72 c17 -40 49 -119
73 -175 l42 -103 193 0 193 0 -39 88 c-21 48 -183 409 -359 802 l-319 715
-182 3 -181 2 -35 -77z m343 -600 c67 -163 121 -298 119 -300 -1 -2 -115 -2
-253 -1 l-250 3 125 302 c69 167 128 300 131 298 2 -3 60 -139 128 -302z"/>
<path d="M224300 8615 l0 -805 175 0 175 0 2 466 3 467 231 -379 230 -379 85
-3 84 -2 235 397 235 398 3 -483 2 -482 177 0 176 0 -6 512 c-4 281 -7 643 -7
805 l0 293 -149 0 -149 0 -285 -482 c-158 -266 -292 -491 -300 -501 -12 -17
-43 31 -312 480 l-300 498 -152 3 -153 3 0 -806z"/>
<path d="M226490 8615 l0 -806 508 4 c566 4 591 7 731 74 90 43 162 112 199
191 24 51 27 68 27 167 0 92 -4 120 -24 170 -32 79 -118 166 -203 204 l-62 28
30 16 c46 24 123 112 152 175 24 51 27 69 27 162 0 96 -3 110 -29 163 -38 75
-109 140 -199 182 -133 63 -170 67 -689 72 l-468 5 0 -807z m911 494 c64 -30
99 -72 106 -129 12 -87 -22 -151 -101 -193 -39 -21 -56 -22 -293 -25 l-253 -4
0 192 0 192 243 -4 c237 -3 243 -4 298 -29z m59 -642 c86 -34 130 -97 130
-184 0 -74 -32 -122 -105 -158 l-60 -30 -282 -3 -283 -3 0 201 0 202 278 -4
c232 -4 284 -7 322 -21z"/>
<path d="M228250 8615 l0 -805 185 0 185 0 -2 803 -3 802 -182 3 -183 2 0
-805z"/>
<path d="M229000 8615 l0 -805 620 0 620 0 0 150 0 150 -435 0 -435 0 0 185 0
185 370 0 370 0 0 145 0 145 -370 0 -370 0 0 175 0 175 420 0 420 0 0 150 0
150 -605 0 -605 0 0 -805z"/>
<path d="M230540 8615 l0 -805 180 0 180 0 0 487 c0 462 1 485 18 470 9 -9
190 -227 402 -486 l385 -470 153 0 152 -1 0 805 0 805 -180 0 -180 0 -2 -491
-3 -492 -400 489 -400 489 -152 3 -153 3 0 -806z"/>
<path d="M232210 9265 l0 -155 260 0 260 0 0 -650 0 -650 180 0 180 0 0 650 0
650 258 2 257 3 0 150 0 150 -697 3 -698 2 0 -155z"/>
<path d="M234204 9343 c-19 -43 -180 -404 -358 -803 l-323 -725 185 -3 c142
-2 187 1 193 10 5 7 38 86 75 176 l66 162 373 0 373 0 30 -72 c17 -40 49 -119
73 -175 l42 -103 193 0 193 0 -39 88 c-21 48 -183 409 -359 802 l-319 715
-182 3 -181 2 -35 -77z m343 -600 c67 -163 121 -298 119 -300 -1 -2 -115 -2
-253 -1 l-250 3 125 302 c69 167 128 300 131 298 2 -3 60 -139 128 -302z"/>
<path d="M235490 8615 l0 -805 185 0 185 0 0 805 0 805 -185 0 -185 0 0 -805z"/>
</g>
</svg>
